<?xml version="1.0" standalone="no"?>
<!DOCTYPE svg PUBLIC "-//W3C//DTD SVG 20010904//EN"
 "http://www.w3.org/TR/2001/REC-SVG-20010904/DTD/svg10.dtd">
<svg version="1.0" xmlns="http://www.w3.org/2000/svg"
 width="800.000000pt" height="800.000000pt" viewBox="0 0 800.000000 800.000000"
 preserveAspectRatio="xMidYMid meet">
<metadata>
Created by potrace 1.11, written by Peter Selinger 2001-2013
</metadata>
<g transform="translate(0.000000,800.000000) scale(0.100000,-0.100000)"
fill="#000000" stroke="none">
<path d="M5580 4300 c-357 -50 -623 -264 -722 -580 -20 -67 -23 -94 -23 -255
0 -157 3 -190 23 -258 72 -248 233 -427 524 -582 46 -24 177 -85 292 -135 343
-149 426 -200 483 -297 38 -66 44 -178 13 -251 -87 -203 -434 -267 -709 -131
-96 47 -199 142 -270 247 -34 51 -45 61 -59 53 -33 -18 -487 -282 -491 -286
-2 -2 11 -30 29 -62 134 -236 366 -423 640 -512 113 -37 260 -62 400 -68 554
-24 962 210 1081 619 27 94 37 324 19 436 -15 96 -56 212 -101 289 -46 79
-207 238 -304 302 -109 71 -274 154 -500 251 -299 129 -385 186 -431 285 -35
74 -33 173 4 246 63 124 217 177 387 134 100 -26 175 -89 275 -232 15 -21 18
-19 245 128 127 82 236 153 244 158 20 12 -62 133 -158 234 -124 129 -263 208
-439 248 -101 22 -352 33 -452 19z"/>
<path d="M3670 3163 c0 -1202 0 -1195 -55 -1289 -51 -87 -132 -126 -265 -127
-47 -1 -103 4 -126 11 -92 27 -180 110 -256 243 -18 32 -37 59 -42 59 -12 0
-506 -300 -506 -307 0 -15 76 -142 115 -193 178 -231 429 -356 755 -376 122
-8 284 8 396 37 259 68 456 243 542 483 70 191 66 108 69 1399 l4 1167 -316 0
-315 0 0 -1107z"/>
</g>
</svg>
